<?xml version="1.0" encoding="UTF-8" standalone="no"?>
<!DOCTYPE svg PUBLIC "-//W3C//DTD SVG 1.1//EN"
 "http://www.w3.org/Graphics/SVG/1.1/DTD/svg11.dtd">
<!-- Generated by graphviz version 3.0.0 (20220226.1711)
 -->
<!-- Title: void &lt;init&gt;() Pages: 1 -->
<svg width="160pt" height="211pt"
 viewBox="0.00 0.00 160.00 211.00" xmlns="http://www.w3.org/2000/svg" xmlns:xlink="http://www.w3.org/1999/xlink">
<g id="graph0" class="graph" transform="scale(1 1) rotate(0) translate(4 207)">
<title>void &lt;init&gt;()</title>
<polygon fill="white" stroke="transparent" points="-4,4 -4,-207 156,-207 156,4 -4,4"/>
<text text-anchor="middle" x="76" y="-7.8" font-family="Times New Roman,serif" font-size="14.00">void &lt;init&gt;()</text>
<!-- 0 -->
<g id="node1" class="node">
<title>0</title>
<polygon fill="gray" stroke="black" points="115.5,-203 36.5,-203 36.5,-167 115.5,-167 115.5,-203"/>
<text text-anchor="middle" x="76" y="-181.3" font-family="Times New Roman,serif" font-size="14.00">r0 := @this</text>
</g>
<!-- 1 -->
<g id="node2" class="node">
<title>1</title>
<polygon fill="none" stroke="black" points="152,-131 0,-131 0,-95 152,-95 152,-131"/>
<text text-anchor="middle" x="76" y="-109.3" font-family="Times New Roman,serif" font-size="14.00">specialinvoke r0.&lt;init&gt;()</text>
</g>
<!-- 0&#45;&gt;1 -->
<g id="edge1" class="edge">
<title>0&#45;&gt;1</title>
<path fill="none" stroke="black" d="M76,-166.7C76,-158.98 76,-149.71 76,-141.11"/>
<polygon fill="black" stroke="black" points="79.5,-141.1 76,-131.1 72.5,-141.1 79.5,-141.1"/>
</g>
<!-- 2 -->
<g id="node3" class="node">
<title>2</title>
<polygon fill="lightgray" stroke="black" points="103,-59 49,-59 49,-23 103,-23 103,-59"/>
<text text-anchor="middle" x="76" y="-37.3" font-family="Times New Roman,serif" font-size="14.00">return</text>
</g>
<!-- 1&#45;&gt;2 -->
<g id="edge2" class="edge">
<title>1&#45;&gt;2</title>
<path fill="none" stroke="black" d="M76,-94.7C76,-86.98 76,-77.71 76,-69.11"/>
<polygon fill="black" stroke="black" points="79.5,-69.1 76,-59.1 72.5,-69.1 79.5,-69.1"/>
</g>
</g>
</svg>
