<?xml version="1.0" encoding="UTF-8" standalone="no"?>
<!DOCTYPE svg PUBLIC "-//W3C//DTD SVG 1.1//EN"
 "http://www.w3.org/Graphics/SVG/1.1/DTD/svg11.dtd">
<!-- Generated by graphviz version 3.0.0 (20220226.1711)
 -->
<!-- Title: void printFizzBuzz(int) Pages: 1 -->
<svg width="585pt" height="859pt"
 viewBox="0.00 0.00 584.50 859.00" xmlns="http://www.w3.org/2000/svg" xmlns:xlink="http://www.w3.org/1999/xlink">
<g id="graph0" class="graph" transform="scale(1 1) rotate(0) translate(4 855)">
<title>void printFizzBuzz(int)</title>
<polygon fill="white" stroke="transparent" points="-4,4 -4,-855 580.5,-855 580.5,4 -4,4"/>
<text text-anchor="middle" x="288.25" y="-7.8" font-family="Times New Roman,serif" font-size="14.00">void printFizzBuzz(int)</text>
<!-- 0 -->
<g id="node1" class="node">
<title>0</title>
<polygon fill="gray" stroke="black" points="203,-851 124,-851 124,-815 203,-815 203,-851"/>
<text text-anchor="middle" x="163.5" y="-829.3" font-family="Times New Roman,serif" font-size="14.00">r4 := @this</text>
</g>
<!-- 1 -->
<g id="node2" class="node">
<title>1</title>
<polygon fill="none" stroke="black" points="223,-779 104,-779 104,-743 223,-743 223,-779"/>
<text text-anchor="middle" x="163.5" y="-757.3" font-family="Times New Roman,serif" font-size="14.00">i0 := @parameter0</text>
</g>
<!-- 0&#45;&gt;1 -->
<g id="edge1" class="edge">
<title>0&#45;&gt;1</title>
<path fill="none" stroke="black" d="M163.5,-814.7C163.5,-806.98 163.5,-797.71 163.5,-789.11"/>
<polygon fill="black" stroke="black" points="167,-789.1 163.5,-779.1 160,-789.1 167,-789.1"/>
</g>
<!-- 2 -->
<g id="node3" class="node">
<title>2</title>
<polygon fill="none" stroke="black" points="209.5,-707 117.5,-707 117.5,-671 209.5,-671 209.5,-707"/>
<text text-anchor="middle" x="163.5" y="-685.3" font-family="Times New Roman,serif" font-size="14.00">$i1 = i0 % 15</text>
</g>
<!-- 1&#45;&gt;2 -->
<g id="edge2" class="edge">
<title>1&#45;&gt;2</title>
<path fill="none" stroke="black" d="M163.5,-742.7C163.5,-734.98 163.5,-725.71 163.5,-717.11"/>
<polygon fill="black" stroke="black" points="167,-717.1 163.5,-707.1 160,-717.1 167,-717.1"/>
</g>
<!-- 3 -->
<g id="node4" class="node">
<title>3</title>
<polygon fill="none" stroke="black" points="232,-635 95,-635 95,-599 232,-599 232,-635"/>
<text text-anchor="middle" x="163.5" y="-613.3" font-family="Times New Roman,serif" font-size="14.00">if $i1 != 0 goto label1</text>
</g>
<!-- 2&#45;&gt;3 -->
<g id="edge3" class="edge">
<title>2&#45;&gt;3</title>
<path fill="none" stroke="black" d="M163.5,-670.7C163.5,-662.98 163.5,-653.71 163.5,-645.11"/>
<polygon fill="black" stroke="black" points="167,-645.1 163.5,-635.1 160,-645.1 167,-645.1"/>
</g>
<!-- 4 -->
<g id="node5" class="node">
<title>4</title>
<polygon fill="none" stroke="black" points="165,-563 0,-563 0,-527 165,-527 165,-563"/>
<text text-anchor="middle" x="82.5" y="-541.3" font-family="Times New Roman,serif" font-size="14.00">$r3 = java.lang.System.out</text>
</g>
<!-- 3&#45;&gt;4 -->
<g id="edge4" class="edge">
<title>3&#45;&gt;4</title>
<path fill="none" stroke="black" d="M143.48,-598.7C133.37,-589.97 120.96,-579.24 109.98,-569.75"/>
<polygon fill="black" stroke="black" points="112.15,-566.99 102.29,-563.1 107.57,-572.29 112.15,-566.99"/>
</g>
<!-- 7 -->
<g id="node6" class="node">
<title>7</title>
<polygon fill="none" stroke="black" points="307.5,-563 183.5,-563 183.5,-527 307.5,-527 307.5,-563"/>
<text text-anchor="middle" x="245.5" y="-541.3" font-family="Times New Roman,serif" font-size="14.00">label1: $i2 = i0 % 5</text>
</g>
<!-- 3&#45;&gt;7 -->
<g id="edge5" class="edge">
<title>3&#45;&gt;7</title>
<path fill="none" stroke="black" d="M183.77,-598.7C194,-589.97 206.56,-579.24 217.68,-569.75"/>
<polygon fill="black" stroke="black" points="220.13,-572.26 225.46,-563.1 215.59,-566.94 220.13,-572.26"/>
</g>
<!-- 5 -->
<g id="node7" class="node">
<title>5</title>
<polygon fill="none" stroke="black" points="155.5,-491 9.5,-491 9.5,-455 155.5,-455 155.5,-491"/>
<text text-anchor="middle" x="82.5" y="-469.3" font-family="Times New Roman,serif" font-size="14.00">$r3.println(&quot;FizzBuzz&quot;)</text>
</g>
<!-- 4&#45;&gt;5 -->
<g id="edge6" class="edge">
<title>4&#45;&gt;5</title>
<path fill="none" stroke="black" d="M82.5,-526.7C82.5,-518.98 82.5,-509.71 82.5,-501.11"/>
<polygon fill="black" stroke="black" points="86,-501.1 82.5,-491.1 79,-501.1 86,-501.1"/>
</g>
<!-- 8 -->
<g id="node10" class="node">
<title>8</title>
<polygon fill="none" stroke="black" points="314,-491 177,-491 177,-455 314,-455 314,-491"/>
<text text-anchor="middle" x="245.5" y="-469.3" font-family="Times New Roman,serif" font-size="14.00">if $i2 != 0 goto label2</text>
</g>
<!-- 7&#45;&gt;8 -->
<g id="edge9" class="edge">
<title>7&#45;&gt;8</title>
<path fill="none" stroke="black" d="M245.5,-526.7C245.5,-518.98 245.5,-509.71 245.5,-501.11"/>
<polygon fill="black" stroke="black" points="249,-501.1 245.5,-491.1 242,-501.1 249,-501.1"/>
</g>
<!-- 6 -->
<g id="node8" class="node">
<title>6</title>
<polygon fill="none" stroke="black" points="137.5,-131 59.5,-131 59.5,-95 137.5,-95 137.5,-131"/>
<text text-anchor="middle" x="98.5" y="-109.3" font-family="Times New Roman,serif" font-size="14.00">goto label4</text>
</g>
<!-- 5&#45;&gt;6 -->
<g id="edge7" class="edge">
<title>5&#45;&gt;6</title>
<path fill="none" stroke="black" d="M82.5,-454.95C82.5,-428.29 82.5,-375.11 82.5,-330 82.5,-330 82.5,-330 82.5,-256 82.5,-215.96 88.86,-169.97 93.56,-141.45"/>
<polygon fill="black" stroke="black" points="97.04,-141.86 95.26,-131.42 90.14,-140.69 97.04,-141.86"/>
</g>
<!-- 19 -->
<g id="node9" class="node">
<title>19</title>
<polygon fill="lightgray" stroke="black" points="267.5,-59 179.5,-59 179.5,-23 267.5,-23 267.5,-59"/>
<text text-anchor="middle" x="223.5" y="-37.3" font-family="Times New Roman,serif" font-size="14.00">label4: return</text>
</g>
<!-- 6&#45;&gt;19 -->
<g id="edge8" class="edge">
<title>6&#45;&gt;19</title>
<path fill="none" stroke="black" d="M129.08,-94.88C145.57,-85.64 166.12,-74.13 183.84,-64.21"/>
<polygon fill="black" stroke="black" points="185.79,-67.13 192.8,-59.19 182.37,-61.02 185.79,-67.13"/>
</g>
<!-- 9 -->
<g id="node11" class="node">
<title>9</title>
<polygon fill="none" stroke="black" points="276,-419 111,-419 111,-383 276,-383 276,-419"/>
<text text-anchor="middle" x="193.5" y="-397.3" font-family="Times New Roman,serif" font-size="14.00">$r2 = java.lang.System.out</text>
</g>
<!-- 8&#45;&gt;9 -->
<g id="edge10" class="edge">
<title>8&#45;&gt;9</title>
<path fill="none" stroke="black" d="M232.65,-454.7C226.47,-446.39 218.96,-436.28 212.18,-427.14"/>
<polygon fill="black" stroke="black" points="214.98,-425.04 206.21,-419.1 209.36,-429.22 214.98,-425.04"/>
</g>
<!-- 12 -->
<g id="node12" class="node">
<title>12</title>
<polygon fill="none" stroke="black" points="418.5,-419 294.5,-419 294.5,-383 418.5,-383 418.5,-419"/>
<text text-anchor="middle" x="356.5" y="-397.3" font-family="Times New Roman,serif" font-size="14.00">label2: $i3 = i0 % 3</text>
</g>
<!-- 8&#45;&gt;12 -->
<g id="edge11" class="edge">
<title>8&#45;&gt;12</title>
<path fill="none" stroke="black" d="M272.65,-454.88C287.03,-445.81 304.88,-434.55 320.41,-424.76"/>
<polygon fill="black" stroke="black" points="322.65,-427.48 329.24,-419.19 318.92,-421.56 322.65,-427.48"/>
</g>
<!-- 10 -->
<g id="node13" class="node">
<title>10</title>
<polygon fill="none" stroke="black" points="243.5,-347 121.5,-347 121.5,-311 243.5,-311 243.5,-347"/>
<text text-anchor="middle" x="182.5" y="-325.3" font-family="Times New Roman,serif" font-size="14.00">$r2.println(&quot;Buzz&quot;)</text>
</g>
<!-- 9&#45;&gt;10 -->
<g id="edge12" class="edge">
<title>9&#45;&gt;10</title>
<path fill="none" stroke="black" d="M190.78,-382.7C189.57,-374.98 188.11,-365.71 186.76,-357.11"/>
<polygon fill="black" stroke="black" points="190.2,-356.44 185.19,-347.1 183.28,-357.53 190.2,-356.44"/>
</g>
<!-- 13 -->
<g id="node15" class="node">
<title>13</title>
<polygon fill="none" stroke="black" points="425,-347 288,-347 288,-311 425,-311 425,-347"/>
<text text-anchor="middle" x="356.5" y="-325.3" font-family="Times New Roman,serif" font-size="14.00">if $i3 != 0 goto label3</text>
</g>
<!-- 12&#45;&gt;13 -->
<g id="edge15" class="edge">
<title>12&#45;&gt;13</title>
<path fill="none" stroke="black" d="M356.5,-382.7C356.5,-374.98 356.5,-365.71 356.5,-357.11"/>
<polygon fill="black" stroke="black" points="360,-357.1 356.5,-347.1 353,-357.1 360,-357.1"/>
</g>
<!-- 11 -->
<g id="node14" class="node">
<title>11</title>
<polygon fill="none" stroke="black" points="196.5,-203 118.5,-203 118.5,-167 196.5,-167 196.5,-203"/>
<text text-anchor="middle" x="157.5" y="-181.3" font-family="Times New Roman,serif" font-size="14.00">goto label4</text>
</g>
<!-- 10&#45;&gt;11 -->
<g id="edge13" class="edge">
<title>10&#45;&gt;11</title>
<path fill="none" stroke="black" d="M179.48,-310.87C175.22,-286.67 167.4,-242.21 162.32,-213.39"/>
<polygon fill="black" stroke="black" points="165.71,-212.43 160.53,-203.19 158.81,-213.64 165.71,-212.43"/>
</g>
<!-- 11&#45;&gt;19 -->
<g id="edge14" class="edge">
<title>11&#45;&gt;19</title>
<path fill="none" stroke="black" d="M165.46,-166.87C176.86,-142.35 197.92,-97.03 211.3,-68.26"/>
<polygon fill="black" stroke="black" points="214.47,-69.73 215.51,-59.19 208.12,-66.78 214.47,-69.73"/>
</g>
<!-- 14 -->
<g id="node16" class="node">
<title>14</title>
<polygon fill="none" stroke="black" points="354,-275 189,-275 189,-239 354,-239 354,-275"/>
<text text-anchor="middle" x="271.5" y="-253.3" font-family="Times New Roman,serif" font-size="14.00">$r1 = java.lang.System.out</text>
</g>
<!-- 13&#45;&gt;14 -->
<g id="edge16" class="edge">
<title>13&#45;&gt;14</title>
<path fill="none" stroke="black" d="M335.49,-310.7C324.78,-301.88 311.61,-291.03 300,-281.47"/>
<polygon fill="black" stroke="black" points="302.21,-278.76 292.27,-275.1 297.76,-284.16 302.21,-278.76"/>
</g>
<!-- 17 -->
<g id="node17" class="node">
<title>17</title>
<polygon fill="none" stroke="black" points="576.5,-275 372.5,-275 372.5,-239 576.5,-239 576.5,-275"/>
<text text-anchor="middle" x="474.5" y="-253.3" font-family="Times New Roman,serif" font-size="14.00">label3: $r0 = java.lang.System.out</text>
</g>
<!-- 13&#45;&gt;17 -->
<g id="edge17" class="edge">
<title>13&#45;&gt;17</title>
<path fill="none" stroke="black" d="M385.37,-310.88C400.79,-301.72 419.98,-290.34 436.6,-280.48"/>
<polygon fill="black" stroke="black" points="438.71,-283.3 445.52,-275.19 435.14,-277.28 438.71,-283.3"/>
</g>
<!-- 15 -->
<g id="node18" class="node">
<title>15</title>
<polygon fill="none" stroke="black" points="332.5,-203 214.5,-203 214.5,-167 332.5,-167 332.5,-203"/>
<text text-anchor="middle" x="273.5" y="-181.3" font-family="Times New Roman,serif" font-size="14.00">$r1.println(&quot;Fizz&quot;)</text>
</g>
<!-- 14&#45;&gt;15 -->
<g id="edge18" class="edge">
<title>14&#45;&gt;15</title>
<path fill="none" stroke="black" d="M271.99,-238.7C272.21,-230.98 272.48,-221.71 272.73,-213.11"/>
<polygon fill="black" stroke="black" points="276.22,-213.2 273.01,-203.1 269.23,-213 276.22,-213.2"/>
</g>
<!-- 18 -->
<g id="node20" class="node">
<title>18</title>
<polygon fill="none" stroke="black" points="436.5,-131 344.5,-131 344.5,-95 436.5,-95 436.5,-131"/>
<text text-anchor="middle" x="390.5" y="-109.3" font-family="Times New Roman,serif" font-size="14.00">$r0.println(i0)</text>
</g>
<!-- 17&#45;&gt;18 -->
<g id="edge21" class="edge">
<title>17&#45;&gt;18</title>
<path fill="none" stroke="black" d="M464.37,-238.87C449.8,-214.24 422.82,-168.64 405.81,-139.88"/>
<polygon fill="black" stroke="black" points="408.77,-138.01 400.67,-131.19 402.75,-141.58 408.77,-138.01"/>
</g>
<!-- 16 -->
<g id="node19" class="node">
<title>16</title>
<polygon fill="none" stroke="black" points="301.5,-131 223.5,-131 223.5,-95 301.5,-95 301.5,-131"/>
<text text-anchor="middle" x="262.5" y="-109.3" font-family="Times New Roman,serif" font-size="14.00">goto label4</text>
</g>
<!-- 15&#45;&gt;16 -->
<g id="edge19" class="edge">
<title>15&#45;&gt;16</title>
<path fill="none" stroke="black" d="M270.78,-166.7C269.57,-158.98 268.11,-149.71 266.76,-141.11"/>
<polygon fill="black" stroke="black" points="270.2,-140.44 265.19,-131.1 263.28,-141.53 270.2,-140.44"/>
</g>
<!-- 16&#45;&gt;19 -->
<g id="edge20" class="edge">
<title>16&#45;&gt;19</title>
<path fill="none" stroke="black" d="M252.86,-94.7C248.37,-86.64 242.94,-76.89 237.98,-67.98"/>
<polygon fill="black" stroke="black" points="240.95,-66.14 233.03,-59.1 234.84,-69.54 240.95,-66.14"/>
</g>
<!-- 18&#45;&gt;19 -->
<g id="edge22" class="edge">
<title>18&#45;&gt;19</title>
<path fill="none" stroke="black" d="M349.65,-94.88C326.72,-85.26 297.92,-73.19 273.63,-63.01"/>
<polygon fill="black" stroke="black" points="274.8,-59.71 264.22,-59.07 272.09,-66.16 274.8,-59.71"/>
</g>
</g>
</svg>
