<?xml version="1.0" encoding="UTF-8" standalone="no"?>
<!DOCTYPE svg PUBLIC "-//W3C//DTD SVG 1.1//EN"
 "http://www.w3.org/Graphics/SVG/1.1/DTD/svg11.dtd">
<!-- Generated by graphviz version 3.0.0 (20220226.1711)
 -->
<!-- Title: void sout(int) Pages: 1 -->
<svg width="209pt" height="715pt"
 viewBox="0.00 0.00 209.00 715.00" xmlns="http://www.w3.org/2000/svg" xmlns:xlink="http://www.w3.org/1999/xlink">
<g id="graph0" class="graph" transform="scale(1 1) rotate(0) translate(4 711)">
<title>void sout(int)</title>
<polygon fill="white" stroke="transparent" points="-4,4 -4,-711 205,-711 205,4 -4,4"/>
<text text-anchor="middle" x="100.5" y="-7.8" font-family="Times New Roman,serif" font-size="14.00">void sout(int)</text>
<!-- 0 -->
<g id="node1" class="node">
<title>0</title>
<polygon fill="gray" stroke="black" points="140,-707 61,-707 61,-671 140,-671 140,-707"/>
<text text-anchor="middle" x="100.5" y="-685.3" font-family="Times New Roman,serif" font-size="14.00">r5 := @this</text>
</g>
<!-- 1 -->
<g id="node2" class="node">
<title>1</title>
<polygon fill="none" stroke="black" points="160,-635 41,-635 41,-599 160,-599 160,-635"/>
<text text-anchor="middle" x="100.5" y="-613.3" font-family="Times New Roman,serif" font-size="14.00">i0 := @parameter0</text>
</g>
<!-- 0&#45;&gt;1 -->
<g id="edge1" class="edge">
<title>0&#45;&gt;1</title>
<path fill="none" stroke="black" d="M100.5,-670.7C100.5,-662.98 100.5,-653.71 100.5,-645.11"/>
<polygon fill="black" stroke="black" points="104,-645.1 100.5,-635.1 97,-645.1 104,-645.1"/>
</g>
<!-- 2 -->
<g id="node3" class="node">
<title>2</title>
<polygon fill="none" stroke="black" points="183,-563 18,-563 18,-527 183,-527 183,-563"/>
<text text-anchor="middle" x="100.5" y="-541.3" font-family="Times New Roman,serif" font-size="14.00">$r1 = java.lang.System.out</text>
</g>
<!-- 1&#45;&gt;2 -->
<g id="edge2" class="edge">
<title>1&#45;&gt;2</title>
<path fill="none" stroke="black" d="M100.5,-598.7C100.5,-590.98 100.5,-581.71 100.5,-573.11"/>
<polygon fill="black" stroke="black" points="104,-573.1 100.5,-563.1 97,-573.1 104,-573.1"/>
</g>
<!-- 3 -->
<g id="node4" class="node">
<title>3</title>
<polygon fill="none" stroke="black" points="201,-491 0,-491 0,-455 201,-455 201,-491"/>
<text text-anchor="middle" x="100.5" y="-469.3" font-family="Times New Roman,serif" font-size="14.00">$r0 = new java.lang.StringBuilder</text>
</g>
<!-- 2&#45;&gt;3 -->
<g id="edge3" class="edge">
<title>2&#45;&gt;3</title>
<path fill="none" stroke="black" d="M100.5,-526.7C100.5,-518.98 100.5,-509.71 100.5,-501.11"/>
<polygon fill="black" stroke="black" points="104,-501.1 100.5,-491.1 97,-501.1 104,-501.1"/>
</g>
<!-- 4 -->
<g id="node5" class="node">
<title>4</title>
<polygon fill="none" stroke="black" points="180,-419 21,-419 21,-383 180,-383 180,-419"/>
<text text-anchor="middle" x="100.5" y="-397.3" font-family="Times New Roman,serif" font-size="14.00">specialinvoke $r0.&lt;init&gt;()</text>
</g>
<!-- 3&#45;&gt;4 -->
<g id="edge4" class="edge">
<title>3&#45;&gt;4</title>
<path fill="none" stroke="black" d="M100.5,-454.7C100.5,-446.98 100.5,-437.71 100.5,-429.11"/>
<polygon fill="black" stroke="black" points="104,-429.1 100.5,-419.1 97,-429.1 104,-429.1"/>
</g>
<!-- 5 -->
<g id="node6" class="node">
<title>5</title>
<polygon fill="none" stroke="black" points="179,-347 22,-347 22,-311 179,-311 179,-347"/>
<text text-anchor="middle" x="100.5" y="-325.3" font-family="Times New Roman,serif" font-size="14.00">$r2 = $r0.append(&quot;k = &quot;)</text>
</g>
<!-- 4&#45;&gt;5 -->
<g id="edge5" class="edge">
<title>4&#45;&gt;5</title>
<path fill="none" stroke="black" d="M100.5,-382.7C100.5,-374.98 100.5,-365.71 100.5,-357.11"/>
<polygon fill="black" stroke="black" points="104,-357.1 100.5,-347.1 97,-357.1 104,-357.1"/>
</g>
<!-- 6 -->
<g id="node7" class="node">
<title>6</title>
<polygon fill="none" stroke="black" points="166.5,-275 34.5,-275 34.5,-239 166.5,-239 166.5,-275"/>
<text text-anchor="middle" x="100.5" y="-253.3" font-family="Times New Roman,serif" font-size="14.00">$r3 = $r2.append(i0)</text>
</g>
<!-- 5&#45;&gt;6 -->
<g id="edge6" class="edge">
<title>5&#45;&gt;6</title>
<path fill="none" stroke="black" d="M100.5,-310.7C100.5,-302.98 100.5,-293.71 100.5,-285.11"/>
<polygon fill="black" stroke="black" points="104,-285.1 100.5,-275.1 97,-285.1 104,-285.1"/>
</g>
<!-- 7 -->
<g id="node8" class="node">
<title>7</title>
<polygon fill="none" stroke="black" points="163,-203 38,-203 38,-167 163,-167 163,-203"/>
<text text-anchor="middle" x="100.5" y="-181.3" font-family="Times New Roman,serif" font-size="14.00">$r4 = $r3.toString()</text>
</g>
<!-- 6&#45;&gt;7 -->
<g id="edge7" class="edge">
<title>6&#45;&gt;7</title>
<path fill="none" stroke="black" d="M100.5,-238.7C100.5,-230.98 100.5,-221.71 100.5,-213.11"/>
<polygon fill="black" stroke="black" points="104,-213.1 100.5,-203.1 97,-213.1 104,-213.1"/>
</g>
<!-- 8 -->
<g id="node9" class="node">
<title>8</title>
<polygon fill="none" stroke="black" points="151,-131 50,-131 50,-95 151,-95 151,-131"/>
<text text-anchor="middle" x="100.5" y="-109.3" font-family="Times New Roman,serif" font-size="14.00">$r1.println($r4)</text>
</g>
<!-- 7&#45;&gt;8 -->
<g id="edge8" class="edge">
<title>7&#45;&gt;8</title>
<path fill="none" stroke="black" d="M100.5,-166.7C100.5,-158.98 100.5,-149.71 100.5,-141.11"/>
<polygon fill="black" stroke="black" points="104,-141.1 100.5,-131.1 97,-141.1 104,-141.1"/>
</g>
<!-- 9 -->
<g id="node10" class="node">
<title>9</title>
<polygon fill="lightgray" stroke="black" points="127.5,-59 73.5,-59 73.5,-23 127.5,-23 127.5,-59"/>
<text text-anchor="middle" x="100.5" y="-37.3" font-family="Times New Roman,serif" font-size="14.00">return</text>
</g>
<!-- 8&#45;&gt;9 -->
<g id="edge9" class="edge">
<title>8&#45;&gt;9</title>
<path fill="none" stroke="black" d="M100.5,-94.7C100.5,-86.98 100.5,-77.71 100.5,-69.11"/>
<polygon fill="black" stroke="black" points="104,-69.1 100.5,-59.1 97,-69.1 104,-69.1"/>
</g>
</g>
</svg>
